<svg width="20" height="20" viewBox="0 0 20 20" fill="none" xmlns="http://www.w3.org/2000/svg">
<path d="M2.96874 7.59999H17.0313C17.29 7.59999 17.5 7.3909 17.5 7.13332C17.5 6.87571 17.29 6.66666 17.0313 6.66666H2.96874C2.70998 6.66666 2.5 6.87574 2.5 7.13332C2.5 7.3909 2.71002 7.59999 2.96874 7.59999Z" fill="#181818"/>
<path d="M15.1563 9.94791H4.84374C4.58498 9.94791 4.375 10.1579 4.375 10.4166C4.375 10.6754 4.58502 10.8854 4.84374 10.8854H15.1563C15.415 10.8854 15.625 10.6754 15.625 10.4166C15.625 10.1579 15.415 9.94791 15.1563 9.94791Z" fill="#181818"/>
<path d="M12.6563 13.0729L7.34377 13.0729C7.08501 13.0729 6.87503 13.2829 6.87503 13.5416C6.87503 13.8004 7.08505 14.0104 7.34377 14.0104L12.6563 14.0104C12.9151 14.0104 13.125 13.8003 13.125 13.5416C13.1251 13.2829 12.9151 13.0729 12.6563 13.0729Z" fill="#181818"/>
</svg>
