<?xml version="1.0" encoding="utf-8"?>
<!-- Generator: Adobe Illustrator 16.0.0, SVG Export Plug-In . SVG Version: 6.00 Build 0)  -->
<!DOCTYPE svg PUBLIC "-//W3C//DTD SVG 1.1//EN" "http://www.w3.org/Graphics/SVG/1.1/DTD/svg11.dtd">
<svg version="1.1" id="Layer_1" xmlns="http://www.w3.org/2000/svg" xmlns:xlink="http://www.w3.org/1999/xlink" x="0px" y="0px"
	 width="222.016px" height="30px" viewBox="-116.016 0 222.016 30" enable-background="new -116.016 0 222.016 30"
	 xml:space="preserve">
<path fill="#FFFFFF" stroke="#D9D9D9" d="M60,0.5h44c0.828,0,1.5,0.671,1.5,1.5v26c0,0.828-0.672,1.5-1.5,1.5H60
	c-0.828,0-1.5-0.672-1.5-1.5V2C58.5,1.171,59.172,0.5,60,0.5z"/>
<path fill="#172B85" d="M73.188,21.237h-3.18l-2.385-9.099c-0.113-0.418-0.354-0.789-0.707-0.963
	c-0.883-0.438-1.855-0.787-2.916-0.963V9.862h5.123c0.707,0,1.238,0.526,1.326,1.138l1.238,6.563l3.178-7.7h3.093L73.188,21.237z
	 M79.726,21.237h-3.004l2.474-11.375h3.004L79.726,21.237z M86.084,13.014c0.09-0.613,0.619-0.963,1.238-0.963
	c0.973-0.088,2.031,0.088,2.915,0.524l0.53-2.449C89.884,9.776,88.912,9.6,88.029,9.6c-2.916,0-5.037,1.576-5.037,3.762
	c0,1.664,1.503,2.537,2.563,3.063c1.147,0.524,1.59,0.875,1.501,1.399c0,0.787-0.883,1.138-1.766,1.138
	c-1.061,0-2.121-0.263-3.092-0.701l-0.531,2.451c1.061,0.437,2.209,0.612,3.27,0.612c3.269,0.087,5.3-1.487,5.3-3.851
	C90.237,14.5,86.084,14.325,86.084,13.014z M100.75,21.237L98.365,9.862h-2.563c-0.53,0-1.061,0.351-1.237,0.875l-4.416,10.5h3.092
	l0.617-1.662h3.8l0.354,1.662H100.75z M96.245,12.926l0.882,4.287h-2.473L96.245,12.926z"/>
<path fill="#FFFFFF" stroke="#D9D9D9" d="M4,0.5h40c1.933,0,3.5,1.567,3.5,3.5v22c0,1.934-1.567,3.5-3.5,3.5H4
	c-1.933,0-3.5-1.566-3.5-3.5V4C0.5,2.067,2.067,0.5,4,0.5z"/>
<path fill="#FFFFFF" stroke="#D9D9D9" d="M-54,0.5h40c1.933,0,3.5,1.567,3.5,3.5v22c0,1.934-1.567,3.5-3.5,3.5h-40
	c-1.933,0-3.5-1.566-3.5-3.5V4C-57.5,2.067-55.933,0.5-54,0.5z"/>
<path fill="#FFFFFF" stroke="#D9D9D9" d="M-112,0.5h40c1.933,0,3.5,1.567,3.5,3.5v22c0,1.934-1.567,3.5-3.5,3.5h-40
	c-1.933,0-3.5-1.566-3.5-3.5V4C-115.5,2.067-113.933,0.5-112,0.5z"/>
<path fill="#ED0006" d="M23.72,19.881c-1.241,1.072-2.852,1.719-4.611,1.719C15.183,21.6,12,18.377,12,14.4
	c0-3.977,3.183-7.2,7.109-7.2c1.759,0,3.37,0.647,4.611,1.719C24.961,7.847,26.571,7.2,28.331,7.2c3.926,0,7.109,3.223,7.109,7.2
	c0,3.977-3.183,7.2-7.109,7.2C26.571,21.6,24.961,20.953,23.72,19.881z"/>
<path fill="#F9A000" d="M23.72,19.881c1.529-1.32,2.499-3.286,2.499-5.481c0-2.194-0.97-4.16-2.499-5.48
	C24.961,7.847,26.571,7.2,28.331,7.2c3.926,0,7.109,3.224,7.109,7.2c0,3.977-3.183,7.2-7.109,7.2
	C26.571,21.6,24.961,20.953,23.72,19.881z"/>
<path fill="#FF5E00" d="M23.721,19.881c1.529-1.32,2.498-3.286,2.498-5.481c0-2.194-0.969-4.16-2.498-5.48
	c-1.529,1.321-2.499,3.286-2.499,5.48C21.223,16.595,22.192,18.561,23.721,19.881z"/>
<g>
	<path fill="#27292D" d="M-26.724,24.215l-0.126,0.025c-0.437,0.086-0.596,0.119-0.916,0.119c-0.738,0-1.612-0.379-1.612-2.158
		c0-0.916,0.151-2.133,1.529-2.133h0.008c0.235,0.016,0.504,0.041,1.008,0.193l0.109,0.031V24.215L-26.724,24.215z M-26.497,15.34
		l-0.227,0.042v3.292l-0.201-0.059l-0.06-0.018c-0.227-0.066-0.747-0.217-1.251-0.217c-2.754,0-3.334,2.082-3.334,3.828
		c0,2.393,1.344,3.77,3.687,3.77c0.991,0,1.722-0.1,2.461-0.344c0.68-0.219,0.924-0.529,0.924-1.193v-9.446
		C-25.153,15.113-25.834,15.23-26.497,15.34"/>
	<path fill="#27292D" d="M-18.536,24.275l-0.117,0.033l-0.42,0.109c-0.396,0.1-0.747,0.158-1.017,0.158
		c-0.646,0-1.032-0.318-1.032-0.865c0-0.352,0.159-0.947,1.217-0.947h1.369V24.275z M-19.502,18.338
		c-0.848,0-1.722,0.15-2.805,0.488l-0.705,0.209l0.234,1.596l0.689-0.227c0.722-0.236,1.62-0.387,2.292-0.387
		c0.302,0,1.227,0,1.227,0.998v0.438h-1.285c-2.343,0-3.426,0.748-3.426,2.352c0,1.369,0.999,2.191,2.679,2.191
		c0.521,0,1.242-0.102,1.863-0.252l0.034-0.008l0.033,0.008l0.21,0.033c0.655,0.117,1.335,0.236,1.999,0.361v-5.24
		C-16.462,19.203-17.486,18.338-19.502,18.338"/>
	<path fill="#27292D" d="M-34.853,24.275l-0.118,0.033l-0.419,0.109c-0.395,0.1-0.739,0.158-1.017,0.158
		c-0.646,0-1.032-0.318-1.032-0.865c0-0.352,0.159-0.947,1.209-0.947h1.368L-34.853,24.275L-34.853,24.275z M-35.81,18.338
		c-0.856,0-1.722,0.15-2.805,0.488l-0.706,0.209l0.235,1.596l0.688-0.227c0.723-0.236,1.621-0.387,2.293-0.387
		c0.302,0,1.227,0,1.227,0.998v0.438h-1.285c-2.344,0-3.435,0.748-3.435,2.352c0,1.369,0.999,2.191,2.688,2.191
		c0.521,0,1.242-0.102,1.863-0.252l0.034-0.008l0.033,0.008l0.202,0.033c0.663,0.117,1.335,0.236,1.998,0.371v-5.24
		C-32.77,19.195-33.794,18.338-35.81,18.338"/>
	<path fill="#27292D" d="M-43.694,18.355c-1.066,0-1.948,0.352-2.276,0.502l-0.084,0.043l-0.075-0.059
		c-0.453-0.328-1.117-0.496-2.041-0.496c-0.814,0-1.578,0.117-2.41,0.361c-0.714,0.219-0.99,0.563-0.99,1.209v5.986h2.233v-5.533
		l0.109-0.033c0.453-0.15,0.722-0.176,0.982-0.176c0.646,0,0.974,0.344,0.974,1.016v4.736h2.2v-4.828
		c0-0.285-0.059-0.453-0.067-0.488l-0.075-0.143l0.151-0.066c0.336-0.15,0.705-0.227,1.092-0.227c0.444,0,0.974,0.176,0.974,1.016
		v4.736h2.192v-4.953C-40.806,19.203-41.747,18.355-43.694,18.355"/>
	<path fill="#27292D" d="M-20.182,9.999c-0.328,0-0.874-0.034-1.302-0.118l-0.126-0.025V6.623c0-0.269-0.051-0.437-0.059-0.462
		l-0.067-0.134l0.143-0.059c0.033-0.017,0.067-0.025,0.109-0.042l0.025-0.017c0.05-0.017,0.101-0.034,0.15-0.051
		c0.025-0.008,0.042-0.017,0.06-0.017c0.495-0.134,0.948-0.118,1.149-0.134h0.009c1.369,0,1.528,1.217,1.528,2.133
		C-18.569,9.621-19.451,9.999-20.182,9.999 M-20.19,3.852c-0.017,0-0.042,0-0.059,0c-1.285,0-2.604,0.353-3.074,1.041
		c-0.251,0.336-0.395,0.756-0.402,1.251l0,0v3.334c0,0.285-0.06,0.395-0.067,0.42l-0.076,0.142h-4.056V7.723h-0.008
		c-0.051-2.443-1.495-3.787-3.586-3.787h-0.243h-1.798c-0.084,0.596-0.15,1.016-0.234,1.612h2.032c1.066,0,1.629,0.907,1.629,2.301
		v2.334l-0.143-0.075c-0.025-0.009-0.202-0.068-0.479-0.068h-3.51c-0.067,0.445-0.151,1.025-0.243,1.604h10.79
		c0.369-0.076,0.798-0.143,1.168-0.202c0.546,0.269,1.562,0.412,2.259,0.412c2.343,0,3.862-1.57,3.862-3.989
		C-16.437,5.473-17.906,3.903-20.19,3.852"/>
	<path fill="#27292D" d="M-39.11,12.627h0.102c2.343,0,3.435-0.772,3.435-2.679c0-1.369-1-2.46-2.679-2.46h-2.158
		c-0.647,0-1.033-0.37-1.033-0.991c0-0.42,0.159-0.94,1.218-0.94h4.72c0.1-0.613,0.15-1,0.243-1.612h-4.904
		c-2.284,0-3.435,0.958-3.435,2.553c0,1.579,1,2.402,2.679,2.402h2.158c0.646,0,1.033,0.512,1.033,1.049
		c0,0.353-0.16,1.083-1.21,1.083h-0.36l-6.911-0.017l0,0h-1.26c-1.066,0-1.813-0.604-1.813-2.007V8.042
		c0-1.461,0.579-2.368,1.813-2.368h2.049c0.093-0.621,0.151-1.017,0.235-1.604h-2.553h-0.243c-2.092,0-3.536,1.402-3.586,3.846l0,0
		v0.092v1c0.05,2.443,1.494,3.61,3.586,3.61h0.243h1.797l3.745,0.009l0,0h2.233H-39.11L-39.11,12.627z"/>
</g>
<g id="Apple_Pay">
	<path id="_Compound_Path_" d="M-103.468,9.495c-0.434,0.536-1.087,0.844-1.775,0.838c-0.04-0.675,0.188-1.337,0.633-1.844
		c0.449-0.518,1.082-0.842,1.765-0.905C-102.792,8.278-103.016,8.966-103.468,9.495 M-102.846,10.468
		c-0.984-0.057-1.821,0.554-2.263,0.554c-0.441,0-1.131-0.521-1.968-0.509c-1.036,0.021-1.982,0.589-2.488,1.493
		c-1.052,1.821-0.271,4.524,0.757,6.005c0.498,0.725,1.131,1.539,1.89,1.505c0.757-0.034,1.04-0.486,1.945-0.486
		s1.131,0.486,1.957,0.475s1.335-0.734,1.843-1.47c0.352-0.521,0.626-1.088,0.814-1.686c-0.965-0.419-1.591-1.368-1.595-2.421
		c0.017-0.924,0.503-1.776,1.29-2.261c-0.506-0.711-1.311-1.151-2.183-1.189 M-97.191,8.433V19.46h1.765v-3.8h2.364
		c1.921,0.107,3.565-1.363,3.673-3.284c0.006-0.112,0.007-0.224,0.002-0.336c0.09-1.91-1.386-3.529-3.295-3.619
		c-0.108-0.005-0.216-0.005-0.324,0L-97.191,8.433z M-95.426,9.868h1.923c1.12-0.158,2.156,0.62,2.315,1.739
		c0.02,0.144,0.025,0.289,0.015,0.433c0.079,1.14-0.782,2.129-1.922,2.208c-0.14,0.009-0.28,0.005-0.419-0.014h-1.912V9.868z
		 M-86.31,19.46c1.03,0.024,1.991-0.513,2.51-1.402l0,0v1.402h1.583v-5.508c0-1.595-1.267-2.613-3.223-2.613
		s-3.122,1.04-3.201,2.465h1.538c0.182-0.728,0.872-1.209,1.617-1.131c1.041,0,1.629,0.498,1.629,1.392v0.599l-2.138,0.136
		c-1.979,0.112-3.054,0.928-3.054,2.342c0.045,1.336,1.165,2.383,2.5,2.338C-86.468,19.478-86.389,19.471-86.31,19.46z
		 M-85.857,18.159c-0.905,0-1.482-0.44-1.482-1.132c0-0.689,0.554-1.131,1.618-1.131l1.9-0.124v0.622
		c-0.02,1.024-0.867,1.839-1.891,1.818c-0.048-0.001-0.097-0.003-0.145-0.008V18.159z M-80.066,22.366
		c1.663,0,2.443-0.634,3.133-2.556l2.998-8.37h-1.73l-2.014,6.503l0,0l-2.013-6.503h-1.821l2.896,8.019l-0.158,0.486
		c-0.12,0.688-0.739,1.176-1.437,1.131h-0.508V22.4c0.218,0.017,0.437,0.02,0.656,0.012V22.366z"/>
</g>
</svg>
