<svg width="106" height="30" viewBox="0 0 106 30" fill="none" xmlns="http://www.w3.org/2000/svg">
<rect x="58.5" y="0.5" width="47" height="29" rx="1.5" fill="white" stroke="#D9D9D9"/>
<path fill-rule="evenodd" clip-rule="evenodd" d="M73.1879 21.2375H70.0074L67.6224 12.1386C67.5092 11.7201 67.2689 11.3501 66.9153 11.1757C66.033 10.7374 65.0607 10.3886 64 10.2127V9.86243H69.1235C69.8306 9.86243 70.361 10.3886 70.4494 10.9998L71.6868 17.5631L74.8657 9.86243H77.9578L73.1879 21.2375ZM79.7256 21.2375H76.7219L79.1953 9.86243H82.199L79.7256 21.2375ZM86.0847 13.0137C86.1731 12.401 86.7035 12.0507 87.3222 12.0507C88.2945 11.9628 89.3536 12.1387 90.2375 12.5754L90.7678 10.1263C89.8839 9.77601 88.9117 9.6001 88.0293 9.6001C85.114 9.6001 82.9926 11.1757 82.9926 13.3625C82.9926 15.026 84.4953 15.8995 85.5559 16.4257C86.7035 16.9504 87.1454 17.3007 87.057 17.8254C87.057 18.6125 86.1731 18.9628 85.2908 18.9628C84.2301 18.9628 83.1694 18.7004 82.1987 18.2622L81.6683 20.7128C82.729 21.1495 83.8765 21.3254 84.9372 21.3254C88.2061 21.4119 90.2375 19.8378 90.2375 17.4751C90.2375 14.4998 86.0847 14.3254 86.0847 13.0137ZM100.75 21.2375L98.3647 9.86243H95.803C95.2727 9.86243 94.7423 10.2127 94.5655 10.7374L90.1492 21.2375H93.2413L93.8584 19.5754H97.6576L98.0112 21.2375H100.75ZM96.2449 12.9257L97.1273 17.2128H94.6539L96.2449 12.9257Z" fill="#172B85"/>
<rect x="0.5" y="0.5" width="47" height="29" rx="3.5" fill="white" stroke="#D9D9D9"/>
<path fill-rule="evenodd" clip-rule="evenodd" d="M23.7198 19.8805C22.4784 20.9527 20.8684 21.6 19.1091 21.6C15.1828 21.6 12 18.3764 12 14.4C12 10.4235 15.1828 7.19995 19.1091 7.19995C20.8684 7.19995 22.4785 7.84722 23.7198 8.91947C24.9611 7.84724 26.5712 7.19998 28.3305 7.19998C32.2567 7.19998 35.4395 10.4235 35.4395 14.4C35.4395 18.3764 32.2567 21.6 28.3305 21.6C26.5711 21.6 24.9611 20.9527 23.7198 19.8805Z" fill="#ED0006"/>
<path fill-rule="evenodd" clip-rule="evenodd" d="M23.7197 19.8806C25.2486 18.56 26.2181 16.5947 26.2181 14.4001C26.2181 12.2055 25.2486 10.2402 23.7197 8.91958C24.961 7.84734 26.5711 7.20007 28.3304 7.20007C32.2567 7.20007 35.4395 10.4236 35.4395 14.4001C35.4395 18.3765 32.2567 21.6001 28.3304 21.6001C26.5711 21.6001 24.961 20.9528 23.7197 19.8806Z" fill="#F9A000"/>
<path fill-rule="evenodd" clip-rule="evenodd" d="M23.721 19.8806C25.2499 18.5599 26.2193 16.5947 26.2193 14.4001C26.2193 12.2054 25.2499 10.2402 23.721 8.91956C22.1921 10.2402 21.2227 12.2054 21.2227 14.4001C21.2227 16.5947 22.1921 18.5599 23.721 19.8806Z" fill="#FF5E00"/>
</svg>
