<?xml version="1.0" encoding="utf-8"?>
<!-- Generator: Adobe Illustrator 16.0.0, SVG Export Plug-In . SVG Version: 6.00 Build 0)  -->
<!DOCTYPE svg PUBLIC "-//W3C//DTD SVG 1.1//EN" "http://www.w3.org/Graphics/SVG/1.1/DTD/svg11.dtd">
<svg version="1.1" id="Layer_1" xmlns="http://www.w3.org/2000/svg" xmlns:xlink="http://www.w3.org/1999/xlink" x="0px" y="0px"
	 width="796.199px" height="265.5px" viewBox="0 0 796.199 265.5" enable-background="new 0 0 796.199 265.5" xml:space="preserve">
<g>
	<g>
		<path fill-rule="evenodd" clip-rule="evenodd" fill="#E94E4A" d="M26.455,210.444c10.49-9.121,20.853-18.131,31.132-27.069
			c-45.292-49.177-27.872-105.953,4.117-131.21c35.319-27.888,87.676-24.44,115.991,9.003c-9.826,8.935-19.756,17.965-30.347,27.595
			c20.222,24.203,28.226,50.399,21.352,79.92c-4.492,19.29-14.814,35.303-30.545,47.502
			C105.477,241.521,60.046,239.819,26.455,210.444z M146.332,96.44c-29.718,29.257-58.851,57.939-88.499,87.129
			c16.692,14.47,36.354,22.89,59.246,21.763c32.005-1.571,36.307-5.128,45.38-34.157C171.271,142.977,164.663,117.05,146.332,96.44z
			 M169.346,60.307C138.657,28.491,77.602,32.297,54.744,68.3c33.382-10.055,63.203-4.953,90.294,18.394
			c6.872-7.356,13.323-14.24,19.744-21.154C166.364,63.838,167.84,62.04,169.346,60.307z"/>
		<path fill-rule="evenodd" clip-rule="evenodd" fill="#E94E4A" d="M372.205,183.953c0,16.928,0,32.549,0,50.2
			c-11.12-6.105-20.546-11.012-29.613-16.508c-1.67-1.013-2.653-4.42-2.662-6.727c-0.152-44.507-0.113-89.014-0.113-134.384
			c10.32,0,20.255,0,31.289,0c0.47,1.513,1.197,3.855,2.068,6.663c31.345-14.4,57.46-9.506,75.669,20.811
			c9.27,15.431,10.265,32.363,4.474,49.592C441.854,187.687,411.359,199.78,372.205,183.953z M398.026,105.472
			c-13.69,0.096-26.007,13.616-25.904,28.432c0.101,14.684,12.78,28.596,26.084,28.624c13.567,0.027,25.472-13.408,25.51-28.792
			C423.755,118.304,412.003,105.374,398.026,105.472z"/>
		<path fill-rule="evenodd" clip-rule="evenodd" fill="#E94E4A" d="M523.833,75.708c32.669-0.011,58.468,25.548,58.436,57.892
			c-0.031,32.246-26.145,58.726-58.076,58.888c-32.64,0.17-58.701-26.017-58.748-59.026
			C465.395,100.882,490.833,75.719,523.833,75.708z M549.137,134.944c0.51-15.634-10.373-28.814-24.341-29.475
			c-13.724-0.649-26.135,11.862-27.043,27.263c-0.862,14.639,12.076,29.548,25.868,29.81
			C536.687,162.79,548.648,149.85,549.137,134.944z"/>
		<path fill-rule="evenodd" clip-rule="evenodd" fill="#E94E4A" d="M322.448,106.885c-8.402,1.742-15.19,3.691-22.095,4.279
			c-2.35,0.201-4.906-3.176-7.52-4.651c-4.437-2.504-8.761-5.843-13.559-6.913c-6.009-1.338-11.819,0.882-12.83,8.056
			c-1.072,7.612,4.546,9.368,10.588,10.683c8.182,1.778,16.562,3.243,24.32,6.231c12.382,4.77,20.788,13.381,21.788,27.59
			c1.114,15.81-5.256,27.486-19.23,34.78c-19.832,10.354-48.1,6.119-61.592-9.334c-3.028-3.47-5.147-7.825-7.191-12.013
			c-0.788-1.614-0.9-4.256-0.11-5.816c2.598-5.141,24.84-4.919,28.165,0.079c5.397,8.115,14.981,11.433,22.78,6.896
			c3.032-1.765,6.212-5.773,6.47-8.99c0.195-2.421-3.677-6.453-6.587-7.581c-6.831-2.647-14.203-3.87-21.299-5.874
			c-21.217-5.99-30.011-18.006-27.968-38.018c1.605-15.725,18.302-29.735,36.52-30.582c17.219-0.799,33.151,1.968,43.644,17.55
			C319.227,96.949,320.29,101.598,322.448,106.885z"/>
		<path fill-rule="evenodd" clip-rule="evenodd" fill="#E94E4A" d="M664.605,160.541c0,10.173,0,20.473,0,30.7
			c-28.414,5.303-50.472-7.381-52.889-31.167c-1.29-12.682-0.295-25.598-0.356-38.408c-0.069-14.305,1.383-13.873-13.588-13.876
			c-1.339,0-2.692-0.133-4.014-0.354c-0.602-0.101-1.144-0.569-2.158-1.107c0-9.72,0-19.645,0-30.118
			c6.459-0.362,12.381-0.694,19.473-1.091c0-13.637,0-26.868,0-41.913c11.018,6.096,20.505,10.999,29.544,16.624
			c1.948,1.212,2.979,4.969,3.209,7.658c0.482,5.607,0.146,11.284,0.146,17.828c7.506,0,13.449,0,20.247,0
			c0,10.753,0,20.643,0,31.428c-2.139,0.323-4.776,1.361-7.184,0.973c-11.396-1.844-14.108,3.919-13.062,13.815
			c0.461,4.337,0.085,8.759,0.152,13.14C644.395,152.629,647.11,156.115,664.605,160.541z"/>
		<path fill-rule="evenodd" clip-rule="evenodd" fill="#E94E4A" d="M720.419,192.057c-10.979,0-20.682,0-31.269,0
			c0-38.092,0-76.3,0-115.806c9.639,5.334,19.074,10.281,28.15,15.817c1.759,1.073,2.972,4.442,2.988,6.762
			C720.483,129.522,720.419,160.216,720.419,192.057z"/>
		<path fill-rule="evenodd" clip-rule="evenodd" fill="#E94E4A" d="M745.613,107.418c9.827,5.35,18.728,9.873,27.227,15.058
			c2.024,1.234,3.791,4.662,3.826,7.108c0.303,20.474,0.173,40.955,0.173,62.183c-10.417,0-20.337,0-31.226,0
			C745.613,164.466,745.613,136.794,745.613,107.418z"/>
		<path fill-rule="evenodd" clip-rule="evenodd" fill="#E94E4A" d="M760.405,63.638c8.852-0.161,16.077,6.692,16.436,15.59
			c0.392,9.75-6.117,16.775-15.78,17.033c-9.415,0.251-15.893-5.893-16.167-15.333C744.602,70.994,751.049,63.81,760.405,63.638z"/>
		<path fill-rule="evenodd" clip-rule="evenodd" fill="#E94E4A" d="M720.374,49.439c-0.075,9.625-6.068,15.623-15.608,15.622
			c-10.073,0-16.553-6.332-16.454-16.081c0.099-9.516,7.11-16.12,16.828-15.847C714.377,33.391,720.449,39.892,720.374,49.439z"/>
	</g>
</g>
</svg>
