<svg width="20" height="20" viewBox="0 0 20 20" fill="none" xmlns="http://www.w3.org/2000/svg">
<path d="M14.2399 17.1099C14.2399 17.3256 14.4144 17.5 14.63 17.5C14.8457 17.5 15.0201 17.3256 15.0201 17.1099V3.82876L17.3541 6.1628C17.4302 6.23891 17.5285 6.27696 17.63 6.27696C17.7315 6.27696 17.8298 6.23891 17.9059 6.1628C18.0581 6.01058 18.0581 5.76639 17.9059 5.61417L14.9091 2.61734C14.7632 2.47147 14.5063 2.47147 14.3605 2.61734L11.3636 5.61417C11.2114 5.76639 11.2114 6.01058 11.3636 6.1628C11.5158 6.31502 11.76 6.31502 11.9123 6.1628L14.2463 3.82876V17.1099H14.2399Z" fill="black"/>
<path d="M9.15644 13.8372C9.00422 13.685 8.76004 13.685 8.60782 13.8372L6.27378 16.1712V2.89006C6.27378 2.67442 6.09936 2.5 5.88372 2.5C5.66807 2.5 5.49366 2.67442 5.49366 2.89006V16.1712L3.16279 13.8372C3.01057 13.685 2.76638 13.685 2.61416 13.8372C2.46195 13.9894 2.46195 14.2336 2.61416 14.3858L5.61099 17.3826C5.6871 17.4588 5.78541 17.4968 5.88689 17.4968C5.98837 17.4968 6.08668 17.4588 6.16279 17.3826L9.15961 14.3858C9.30549 14.2368 9.30549 13.9894 9.15644 13.8372Z" fill="black"/>
</svg>
